<?xml version="1.0" encoding="utf-8"?>
<!-- Generator: Adobe Illustrator 22.0.0, SVG Export Plug-In . SVG Version: 6.00 Build 0)  -->
<svg version="1.1" id="Calque_1" xmlns="http://www.w3.org/2000/svg" xmlns:xlink="http://www.w3.org/1999/xlink" x="0px" y="0px"
	 viewBox="0 0 311.8 311.8" style="enable-background:new 0 0 311.8 311.8;" xml:space="preserve">
<style type="text/css">
	.st0{fill:#FFFFFF;}
	.st1{fill:#518AB6;}
	.st2{fill:#95F1C6;}
</style>
<rect x="141.9" y="279" class="st0" width="29.5" height="16"/>
<path class="st0" d="M102.6,29.4l12.8,44l81.7,0.3l13.5-44c0,0-32.3-12.8-52.3-12.8S102.6,29.4,102.6,29.4z"/>
<g>
	<g>
		<path class="st1" d="M74,94h15.4l11.8,92.8L116,94h16.2l14.8,92.8L158.8,94h15.4l-16.7,111.7h-19.2l-14.1-85.9l-14.1,85.9H90.8
			L74,94z"/>
		<path class="st1" d="M239,137.7c0,21.4-10.7,27.2-28.9,27.2h-10.6v40.8h-15.3V94h26.6c17,0,28.2,6.7,28.2,26.8V137.7z
			 M223.7,120.8c0-8.6-3.4-13.2-12.8-13.2h-11.4v44h10.4c10.1,0,13.8-3.7,13.8-13.9V120.8z"/>
	</g>
	<g>
		<path class="st1" d="M88.8,248.8v1.8c0,4.3-1.5,8.2-7.3,8.2l0,0c-6,0-7.4-4-7.4-8.6v-14.1c0-4.6,1.4-8.6,7.3-8.6l0,0
			c6,0,7.4,4,7.4,8.3v1.7H84v-1.7c0-1.8-0.3-3.7-2.6-3.7c-2.3,0-2.6,1.9-2.6,4v14.2c0,2,0.2,4,2.6,4c2.2,0,2.6-1.7,2.6-3.7v-1.8
			H88.8z"/>
		<path class="st1" d="M98.7,258.5v-30.4h4.8V254h7.8v4.5H98.7z"/>
		<path class="st1" d="M120,258.5v-30.4h4.7v30.4H120z"/>
		<path class="st1" d="M135.6,258.5v-30.4h5.7l5.8,20.5v-20.5h4.4l0.1,30.4h-5.3l-6.2-20.9v20.9H135.6z"/>
		<path class="st1" d="M161.6,258.5v-30.4h4.7v30.4H161.6z"/>
		<path class="st1" d="M181.9,258.7c-4.4-0.7-5.5-4.3-5.5-8.4v-14.1c0-4.6,1.4-8.6,7.4-8.6l0,0l0,0c6,0,7.3,4,7.3,8.6v14.1
			c0,4-1,7.5-5.1,8.3v3.4h-4.2L181.9,258.7L181.9,258.7z M183.9,254.3c2.2-0.1,2.5-2,2.5-4v-14.1c0-2-0.2-4-2.6-4h-0.1
			c-2.2,0.1-2.5,2-2.5,4v14.1C181.2,252.3,181.4,254.3,183.9,254.3C183.8,254.3,183.9,254.3,183.9,254.3z"/>
		<path class="st1" d="M215.6,228.1v23c0,4.7-1.5,7.8-7.3,7.8c-5.9,0-7.3-3.1-7.3-7.8v-23h4.7V251c0,1.9,0.2,3.3,2.6,3.3
			c2.4,0,2.6-1.4,2.6-3.3v-22.9H215.6z"/>
		<path class="st1" d="M226,258.5v-30.4h12.8v4.6h-8.1v8h6.7v4.6h-6.7v8.6h8.1v4.6L226,258.5L226,258.5z"/>
	</g>
	<g>
		<path class="st2" d="M151.3,30.3c0.1,2.9,0.2,5.7,0.3,8.6c-3.2,0.2-6.3,0.5-9.5,1c0.3,2.9,0.5,5.7,0.8,8.6c3-0.4,6-0.6,8.9-0.7
			c0.1,2.9,0.2,5.7,0.3,8.6c2.9-0.1,5.8-0.1,8.7,0c0.1-2.9,0.2-5.7,0.3-8.6c3,0.1,6,0.4,8.9,0.7c0.3-2.9,0.5-5.8,0.8-8.6
			c-3.1-0.5-6.3-0.8-9.5-1c0.1-2.9,0.2-5.7,0.3-8.6C158.2,30.1,154.8,30.1,151.3,30.3z"/>
		<path class="st1" d="M211.8,27.3c-31.5-17.3-79-17.3-110.5,0l-2,1L113,76.1h87.2l13.5-47.8L211.8,27.3z M196,70.6h-78.9
			l-11.3-39.5c28.9-14.9,72.5-14.9,101.4,0L196,70.6z"/>
	</g>
	<g>
		<polygon class="st1" points="160.8,275.2 158.2,275.2 157.2,279 159.8,279 		"/>
		<polygon class="st1" points="152.2,298.8 154.7,298.8 155.7,295 153.1,295 		"/>
	</g>
	<path class="st1" d="M137.1,279v16l0,0h16l4.1-16H137.1L137.1,279z M143.8,286l6.6-4.6v2.9l-3.8,2.7l3.8,2.7v2.9l-6.6-4.6V286z"/>
	<path class="st1" d="M159.8,279l-4.1,16H176v-16H159.8z M169.2,288l-6.6,4.6v-2.9l3.8-2.7l-3.8-2.7v-2.9l6.6,4.6V288z"/>
</g>
</svg>
